<svg xmlns="http://www.w3.org/2000/svg" viewBox="0 0 1440 320">
  <path fill="#4d2c23" d="M0,320L18.5,293.3C36.9,267,74,213,111,202.7C147.7,192,185,224,222,234.7C258.5,245,295,235,332,229.3C369.2,224,406,224,443,234.7C480,245,517,267,554,234.7C590.8,203,628,117,665,106.7C701.5,96,738,160,775,170.7C812.3,181,849,139,886,133.3C923.1,128,960,160,997,181.3C1033.8,203,1071,213,1108,224C1144.6,235,1182,245,1218,256C1255.4,267,1292,277,1329,288C1366.2,299,1403,309,1422,314.7L1440,320L1440,320L1421.5,320C1403.1,320,1366,320,1329,320C1292.3,320,1255,320,1218,320C1181.5,320,1145,320,1108,320C1070.8,320,1034,320,997,320C960,320,923,320,886,320C849.2,320,812,320,775,320C738.5,320,702,320,665,320C627.7,320,591,320,554,320C516.9,320,480,320,443,320C406.2,320,369,320,332,320C295.4,320,258,320,222,320C184.6,320,148,320,111,320C73.8,320,37,320,18,320L0,320Z" />
</svg>